# File created by Blade
# Date/Time:  Thu Jan 22 18:25:10 2015
# Frame Rate: 120.000 fps
#------------------------------------------------------
:FULLY-SPECIFIED
:DEGREES
1666
root -2.941224 33.124821 0.025528 8.541023 -2.825304 2.593216
RightUpLeg -1.939219 -4.063034 -1.914447
RightLeg 0.802737 -0.000000 -0.000000
RightFoot -12.374029 -3.683431 3.116537
RightToeBase 5.674833 -0.000000 -0.000000
LeftUpLeg -1.507958 4.133689 0.631333
LeftLeg 1.566341 -0.000000 -0.000000
LeftFoot -11.418215 2.788639 -9.581329
LeftToeBase 8.657070 -0.000000 -0.000000
Spine -8.051324 -2.443809 -2.567206
RightShoulder -22.093130 -22.266766 -12.570022
RightArm 19.647330 10.320642 63.458649
RightForeArm -6.146489 -0.000000 78.179536
RightHand 8.456437 0.000000 -5.086979
RightHandThumb1 -24.326973 -0.000000 -32.862282
LeftShoulder -26.714449 9.987113 18.320460
LeftArm -0.918416 -23.057441 -66.010813
LeftForeArm 22.078478 0.000000 67.454147
LeftHand -6.491102 0.000000 -3.933877
LeftHandThumb1 -26.253704 0.000000 33.147579
Head -5.995893 4.484285 0.369217
1667
root -2.940561 33.123448 0.031704 8.550553 -2.869061 2.586307
RightUpLeg -1.943374 -4.059597 -1.914331
RightLeg 0.797678 -0.000000 -0.000000
RightFoot -12.370797 -3.647638 3.109448
RightToeBase 5.638568 -0.000000 -0.000000
LeftUpLeg -1.499889 4.169151 0.632059
LeftLeg 1.570578 -0.000000 -0.000000
LeftFoot -11.437379 2.789678 -9.571063
LeftToeBase 8.581939 -0.000000 -0.000000
Spine -8.049568 -2.449593 -2.581513
RightShoulder -22.088287 -22.302824 -12.350118
RightArm 19.435645 9.682114 63.568018
RightForeArm -6.666555 -0.000000 77.148268
RightHand 8.646571 -0.000000 -5.390320
RightHandThumb1 -24.326973 -0.000000 -32.862282
LeftShoulder -26.637864 9.933667 18.154115
LeftArm -1.101498 -22.798454 -66.872587
LeftForeArm 22.418948 0.000000 66.459986
LeftHand -6.349983 -0.000000 -3.883767
LeftHandThumb1 -26.253704 0.000000 33.147579
Head -6.205271 4.504780 0.452730
1668
root -2.939344 33.121571 0.033767 8.581597 -2.908662 2.582313
RightUpLeg -1.981264 -4.051581 -1.913462
RightLeg 0.804391 -0.000000 -0.000000
RightFoot -12.387830 -3.624958 3.111564
RightToeBase 5.662625 -0.000000 -0.000000
LeftUpLeg -1.521211 4.185118 0.627134
LeftLeg 1.573010 -0.000000 -0.000000
LeftFoot -11.464821 2.804602 -9.574705
LeftToeBase 8.601641 -0.000000 -0.000000
Spine -8.071217 -2.463744 -2.597107
RightShoulder -22.047260 -22.343022 -12.205822
RightArm 19.284675 9.154745 63.913045
RightForeArm -7.335192 -0.000000 76.014264
RightHand 8.645564 0.000000 -5.519830
RightHandThumb1 -24.326973 -0.000000 -32.862282
LeftShoulder -26.568035 9.910298 17.974827
LeftArm -1.186858 -22.509671 -67.674200
LeftForeArm 22.590109 -0.000000 65.336030
LeftHand -6.411494 -0.000000 -3.911549
LeftHandThumb1 -26.253704 0.000000 33.147579
Head -6.400262 4.534406 0.534735
1669
root -2.936837 33.120061 0.037846 8.591808 -2.921739 2.580732
RightUpLeg -1.976014 -4.080723 -1.917409
RightLeg 0.780760 -0.000000 -0.000000
RightFoot -12.386831 -3.581161 3.107131
RightToeBase 5.676283 -0.000000 -0.000000
LeftUpLeg -1.519445 4.148831 0.622102
LeftLeg 1.568190 -0.000000 -0.000000
LeftFoot -11.472488 2.832222 -9.648771
LeftToeBase 8.504242 -0.000000 -0.000000
Spine -8.060843 -2.499727 -2.599552
RightShoulder -22.060417 -22.504556 -12.019288
RightArm 19.352589 8.696653 64.299692
RightForeArm -8.059719 -0.000000 74.720239
RightHand 9.056667 -0.000000 -5.742387
RightHandThumb1 -24.326973 -0.000000 -32.862282
LeftShoulder -26.512915 9.878933 17.785049
LeftArm -1.164588 -22.237879 -68.498269
LeftForeArm 22.661411 -0.000000 64.029278
LeftHand -6.441523 -0.000000 -3.631900
LeftHandThumb1 -26.253704 0.000000 33.147579
Head -6.640163 4.557468 0.587211
1670
root -2.933909 33.118789 0.037128 8.617936 -2.973430 2.574169
RightUpLeg -2.017681 -4.045080 -1.921987
RightLeg 0.795066 -0.000000 -0.000000
RightFoot -12.398397 -3.566293 3.106662
RightToeBase 5.684928 -0.000000 -0.000000
LeftUpLeg -1.538789 4.184243 0.612890
LeftLeg 1.569774 -0.000000 -0.000000
LeftFoot -11.515657 2.877023 -9.581801
LeftToeBase 8.623382 -0.000000 -0.000000
Spine -8.057740 -2.490441 -2.597375
RightShoulder -22.013279 -22.524908 -11.856836
RightArm 19.267057 8.199044 64.524467
RightForeArm -8.731272 -0.000000 73.510521
RightHand 9.120172 -0.000000 -5.912749
RightHandThumb1 -24.326973 -0.000000 -32.862282
LeftShoulder -26.420624 9.777863 17.623553
LeftArm -1.137094 -21.961432 -69.253614
LeftForeArm 22.693040 -0.000000 62.534690
LeftHand -6.364189 -0.000000 -3.522963
LeftHandThumb1 -26.253704 0.000000 33.147579
Head -6.887644 4.577183 0.603570
1671
root -2.931450 33.117021 0.039816 8.630128 -2.963287 2.567259
RightUpLeg -2.010624 -4.128303 -1.915321
RightLeg 0.767667 -0.000000 -0.000000
RightFoot -12.394676 -3.505362 3.082878
RightToeBase 5.681121 -0.000000 -0.000000
LeftUpLeg -1.551793 4.164134 0.616306
LeftLeg 1.582131 -0.000000 -0.000000
LeftFoot -11.544756 2.886752 -9.561709
LeftToeBase 8.612303 -0.000000 -0.000000
Spine -8.040873 -2.551057 -2.582448
RightShoulder -21.916878 -22.526245 -11.759781
RightArm 19.178952 7.663176 64.742529
RightForeArm -9.280507 -0.000000 72.243282
RightHand 9.030863 -0.000000 -6.306987
RightHandThumb1 -24.326973 -0.000000 -32.862282
LeftShoulder -26.335521 9.664462 17.488425
LeftArm -1.087859 -21.549190 -69.955442
LeftForeArm 22.563275 0.000000 60.879248
LeftHand -6.293798 -0.000000 -3.032759
LeftHandThumb1 -26.253704 0.000000 33.147579
Head -7.154282 4.616724 0.613809
1672
root -2.931439 33.115378 0.037443 8.661152 -3.005040 2.561300
RightUpLeg -2.054528 -4.105839 -1.912978
RightLeg 0.771869 -0.000000 -0.000000
RightFoot -12.402477 -3.480429 3.077776
RightToeBase 5.699852 -0.000000 -0.000000
LeftUpLeg -1.581174 4.197639 0.614095
LeftLeg 1.586086 -0.000000 -0.000000
LeftFoot -11.569583 2.894179 -9.558044
LeftToeBase 8.615653 -0.000000 -0.000000
Spine -8.045026 -2.564042 -2.590189
RightShoulder -21.822291 -22.574271 -11.637552
RightArm 19.248633 7.251159 65.053862
RightForeArm -9.891757 -0.000000 70.813188
RightHand 9.270253 -0.000000 -6.482955
RightHandThumb1 -24.326973 -0.000000 -32.862282
LeftShoulder -26.203681 9.546676 17.369852
LeftArm -0.982994 -21.199733 -70.598305
LeftForeArm 22.520088 -0.000000 59.100971
LeftHand -6.252420 -0.000000 -2.766813
LeftHandThumb1 -26.253704 0.000000 33.147579
Head -7.394580 4.666500 0.638133
1673
root -2.930932 33.113470 0.037114 8.684803 -3.054013 2.558839
RightUpLeg -2.087533 -4.064872 -1.916921
RightLeg 0.775685 -0.000000 -0.000000
RightFoot -12.420485 -3.471747 3.098176
RightToeBase 5.711775 -0.000000 -0.000000
LeftUpLeg -1.588635 4.221122 0.607441
LeftLeg 1.568875 -0.000000 -0.000000
LeftFoot -11.586279 2.912751 -9.567883
LeftToeBase 8.625546 -0.000000 -0.000000
Spine -8.043835 -2.570785 -2.599488
RightShoulder -21.705482 -22.574968 -11.550673
RightArm 19.262732 6.764473 65.266048
RightForeArm -10.641408 -0.000000 69.445917
RightHand 9.252883 -0.000000 -6.639413
RightHandThumb1 -24.326973 -0.000000 -32.862282
LeftShoulder -26.074628 9.394496 17.283473
LeftArm -0.820540 -20.705292 -71.164967
LeftForeArm 22.332107 0.000000 57.107635
LeftHand -6.168620 -0.000000 -2.297473
LeftHandThumb1 -26.253704 0.000000 33.147579
Head -7.640917 4.707730 0.649423
1674
root -2.931730 33.111711 0.035868 8.699129 -3.086381 2.559213
RightUpLeg -2.104277 -4.040571 -1.918663
RightLeg 0.764708 -0.000000 -0.000000
RightFoot -12.417966 -3.472423 3.069353
RightToeBase 5.690305 -0.000000 -0.000000
LeftUpLeg -1.598011 4.240655 0.604523
LeftLeg 1.566041 -0.000000 -0.000000
LeftFoot -11.578016 2.898248 -9.621856
LeftToeBase 8.496591 -0.000000 -0.000000
Spine -8.025737 -2.589350 -2.612983
RightShoulder -21.619049 -22.597153 -11.452053
RightArm 19.436370 6.304262 65.480106
RightForeArm -11.392106 -0.000000 67.929997
RightHand 9.367320 -0.000000 -6.715450
RightHandThumb1 -24.326973 -0.000000 -32.862282
LeftShoulder -26.001013 9.353925 17.151279
LeftArm -0.336937 -20.214209 -71.808938
LeftForeArm 22.130001 0.000000 54.871270
LeftHand -6.034027 0.000000 -1.639520
LeftHandThumb1 -26.253704 0.000000 33.147579
Head -7.919049 4.730197 0.659210
1675
root -2.932119 33.109808 0.031173 8.736289 -3.101101 2.554013
RightUpLeg -2.153789 -4.038308 -1.910156
RightLeg 0.772147 -0.000000 -0.000000
RightFoot -12.439088 -3.461877 3.078963
RightToeBase 5.699025 -0.000000 -0.000000
LeftUpLeg -1.647362 4.235921 0.606152
LeftLeg 1.579486 -0.000000 -0.000000
LeftFoot -11.628843 2.935423 -9.591501
LeftToeBase 8.664304 -0.000000 -0.000000
Spine -8.028705 -2.641871 -2.607140
RightShoulder -21.471654 -22.575485 -11.397931
RightArm 19.577901 5.841515 65.663141
RightForeArm -12.228193 0.000000 66.428704
RightHand 9.442693 -0.000000 -6.905108
RightHandThumb1 -24.326973 -0.000000 -32.862282
LeftShoulder -25.888710 9.283325 17.033436
LeftArm 0.143668 -19.706855 -72.388810
LeftForeArm 22.023707 -0.000000 52.525979
LeftHand -5.943349 -0.000000 -0.859282
LeftHandThumb1 -26.253704 0.000000 33.147579
Head -8.190613 4.782605 0.637397
1676
root -2.931596 33.108186 0.025297 8.757401 -3.120066 2.544028
RightUpLeg -2.190693 -3.992450 -1.901640
RightLeg 0.779804 -0.000000 -0.000000
RightFoot -12.452287 -3.482448 3.105698
RightToeBase 5.750014 -0.000000 -0.000000
LeftUpLeg -1.681069 4.221041 0.610702
LeftLeg 1.596140 -0.000000 -0.000000
LeftFoot -11.660177 2.965681 -9.561703
LeftToeBase 8.634910 -0.000000 -0.000000
Spine -8.012274 -2.664862 -2.595261
RightShoulder -21.322716 -22.614367 -11.334621
RightArm 19.816710 5.351867 65.753179
RightForeArm -13.101442 0.000000 64.870041
RightHand 9.597548 0.000000 -7.119458
RightHandThumb1 -24.326973 -0.000000 -32.862282
LeftShoulder -25.690205 9.160639 16.937392
LeftArm 0.613703 -19.274450 -72.880909
LeftForeArm 22.092324 -0.000000 50.061951
LeftHand -5.755006 -0.000000 -0.420467
LeftHandThumb1 -26.253704 0.000000 33.147579
Head -8.457790 4.845411 0.599566
1677
root -2.933565 33.106170 0.019535 8.800813 -3.149734 2.546188
RightUpLeg -2.257543 -3.967786 -1.898644
RightLeg 0.796587 -0.000000 -0.000000
RightFoot -12.470471 -3.501990 3.068954
RightToeBase 5.741377 -0.000000 -0.000000
LeftUpLeg -1.736282 4.237861 0.605687
LeftLeg 1.609629 -0.000000 -0.000000
LeftFoot -11.678237 2.972516 -9.566242
LeftToeBase 8.627630 -0.000000 -0.000000
Spine -8.019512 -2.677790 -2.610165
RightShoulder -21.192288 -22.527498 -11.271691
RightArm 20.029366 4.781354 65.751805
RightForeArm -13.956293 -0.000000 63.272166
RightHand 9.661433 -0.000000 -7.342194
RightHandThumb1 -24.326973 -0.000000 -32.862282
LeftShoulder -25.506742 9.035104 16.856725
LeftArm 1.188694 -18.638926 -73.335089
LeftForeArm 22.047413 -0.000000 47.430741
LeftHand -5.632227 -0.000000 0.698784
LeftHandThumb1 -26.253704 0.000000 33.147579
Head -8.740173 4.925243 0.570507
1678
root -2.934285 33.104469 0.012836 8.818906 -3.169159 2.541841
RightUpLeg -2.302768 -3.949707 -1.893458
RightLeg 0.822018 -0.000000 -0.000000
RightFoot -12.483877 -3.500781 3.069253
RightToeBase 5.713654 -0.000000 -0.000000
LeftUpLeg -1.770159 4.239544 0.606862
LeftLeg 1.623955 -0.000000 -0.000000
LeftFoot -11.698174 2.990009 -9.565779
LeftToeBase 8.628868 -0.000000 -0.000000
Spine -7.998367 -2.741984 -2.609659
RightShoulder -20.945870 -22.473198 -11.233843
RightArm 20.292766 4.261904 65.731867
RightForeArm -14.724168 -0.000000 61.631999
RightHand 9.818584 -0.000000 -7.692862
RightHandThumb1 -24.326973 -0.000000 -32.862282
LeftShoulder -25.298077 8.897449 16.780481
LeftArm 1.751870 -18.005635 -73.735626
LeftForeArm 21.960011 -0.000000 44.748521
LeftHand -5.546666 -0.000000 1.738529
LeftHandThumb1 -26.253704 0.000000 33.147579
Head -9.019991 5.058778 0.541675
